# xmcd
#
# Track frame offsets:
#	150
#	17177
#	31429
#	47631
#	62408
#	74260
#	88962
#	101039
#	119491
#	133068
#	153545
#	165697
#	188049
#
# Disc length: 2738 seconds
#
# Revision: 1
# Processed by: cddbd v1.4PL0 Copyright (c) Steve Scherf et al.
# Submitted via: audiograbber 1.81.03
#
DISCID=b60ab00d
DTITLE=Michael Reach - The Blinds Of Life
DYEAR=1997
DGENRE=Blues
TTITLE0=Look Over Your Shoulder
TTITLE1=Hey Hey, I'm Going Away
TTITLE2=$29 Special
TTITLE3=How Long Must I Have To Wait
TTITLE4=Shotgun Stalker
TTITLE5=The Blinds Of Life
TTITLE6=My Little Sugar
TTITLE7=Little Children's Blues
TTITLE8=Batman and Bruce Lee Blues
TTITLE9=Turn Your Money Green
TTITLE10=If You Don't Want Me Baby
TTITLE11=John Henry
TTITLE12=Loneliness Is A Crime
EXTD=
EXTT0=
EXTT1=
EXTT2=
EXTT3=
EXTT4=
EXTT5=
EXTT6=
EXTT7=
EXTT8=
EXTT9=
EXTT10=
EXTT11=
EXTT12=
PLAYORDER=
